<mxfile host="app.diagrams.net" agent="Mozilla/5.0 (Windows NT 10.0; Win64; x64) AppleWebKit/537.36 (KHTML, like Gecko) Chrome/129.0.0.0 Safari/537.36" version="24.7.14">
  <diagram name="Page-1" id="5f0bae14-7c28-e335-631c-24af17079c00">
    <mxGraphModel dx="1311" dy="1009" grid="1" gridSize="10" guides="1" tooltips="1" connect="1" arrows="1" fold="1" page="1" pageScale="1" pageWidth="1100" pageHeight="850" background="none" math="0" shadow="0">
      <root>
        <mxCell id="0" />
        <mxCell id="1" parent="0" />
        <mxCell id="h1rhnGbTL_kMhpww9CL0-8" value="&lt;i style=&quot;forced-color-adjust: none; color: rgb(0, 0, 0); font-family: Helvetica; font-size: 12px; font-variant-ligatures: normal; font-variant-caps: normal; font-weight: 400; letter-spacing: normal; orphans: 2; text-align: center; text-indent: 0px; text-transform: none; widows: 2; word-spacing: 0px; -webkit-text-stroke-width: 0px; white-space: normal; background-color: rgb(251, 251, 251); text-decoration-thickness: initial; text-decoration-style: initial; text-decoration-color: initial;&quot;&gt;http://localhost:1433&lt;/i&gt;" style="text;whiteSpace=wrap;html=1;" vertex="1" parent="1">
          <mxGeometry x="359" y="578" width="140" height="40" as="geometry" />
        </mxCell>
        <mxCell id="39150e848f15840c-1" value="SystemA" style="verticalAlign=top;align=left;spacingTop=8;spacingLeft=2;spacingRight=12;shape=cube;size=10;direction=south;fontStyle=4;html=1;rounded=0;shadow=0;comic=0;labelBackgroundColor=none;strokeWidth=1;fontFamily=Verdana;fontSize=12" parent="1" vertex="1">
          <mxGeometry x="253" y="395" width="210" height="140" as="geometry" />
        </mxCell>
        <mxCell id="39150e848f15840c-2" value="SystemB" style="verticalAlign=top;align=left;spacingTop=8;spacingLeft=2;spacingRight=12;shape=cube;size=10;direction=south;fontStyle=4;html=1;rounded=0;shadow=0;comic=0;labelBackgroundColor=none;strokeWidth=1;fontFamily=Verdana;fontSize=12" parent="1" vertex="1">
          <mxGeometry x="700" y="395" width="210" height="140" as="geometry" />
        </mxCell>
        <mxCell id="56qgGgSU_Dx7bQ2gSMt9-4" style="edgeStyle=elbowEdgeStyle;rounded=0;html=1;labelBackgroundColor=none;startArrow=none;startFill=0;startSize=8;endArrow=none;endFill=0;endSize=16;fontFamily=Verdana;fontSize=12;" parent="1" edge="1">
          <mxGeometry relative="1" as="geometry">
            <mxPoint x="328.08" y="395" as="sourcePoint" />
            <mxPoint x="328.08" y="360" as="targetPoint" />
          </mxGeometry>
        </mxCell>
        <mxCell id="56qgGgSU_Dx7bQ2gSMt9-5" value="" style="ellipse;whiteSpace=wrap;html=1;rounded=0;shadow=0;comic=0;labelBackgroundColor=none;strokeWidth=1;fontFamily=Verdana;fontSize=12;align=center;" parent="1" vertex="1">
          <mxGeometry x="318" y="345" width="20" height="20" as="geometry" />
        </mxCell>
        <mxCell id="56qgGgSU_Dx7bQ2gSMt9-6" value="&lt;i&gt;http://localhost:7222&lt;/i&gt;" style="text;html=1;align=center;verticalAlign=middle;whiteSpace=wrap;rounded=0;" parent="1" vertex="1">
          <mxGeometry x="368" y="340" width="60" height="30" as="geometry" />
        </mxCell>
        <mxCell id="56qgGgSU_Dx7bQ2gSMt9-8" style="edgeStyle=elbowEdgeStyle;rounded=0;html=1;labelBackgroundColor=none;startArrow=none;startFill=0;startSize=8;endArrow=none;endFill=0;endSize=16;fontFamily=Verdana;fontSize=12;" parent="1" edge="1">
          <mxGeometry relative="1" as="geometry">
            <mxPoint x="750.0799999999999" y="395" as="sourcePoint" />
            <mxPoint x="750.0799999999999" y="360" as="targetPoint" />
          </mxGeometry>
        </mxCell>
        <mxCell id="56qgGgSU_Dx7bQ2gSMt9-9" value="" style="ellipse;whiteSpace=wrap;html=1;rounded=0;shadow=0;comic=0;labelBackgroundColor=none;strokeWidth=1;fontFamily=Verdana;fontSize=12;align=center;" parent="1" vertex="1">
          <mxGeometry x="740" y="345" width="20" height="20" as="geometry" />
        </mxCell>
        <mxCell id="56qgGgSU_Dx7bQ2gSMt9-10" value="&lt;i&gt;http://localhost:7027&lt;/i&gt;" style="text;html=1;align=center;verticalAlign=middle;whiteSpace=wrap;rounded=0;" parent="1" vertex="1">
          <mxGeometry x="790" y="340" width="60" height="30" as="geometry" />
        </mxCell>
        <mxCell id="56qgGgSU_Dx7bQ2gSMt9-11" value="" style="endArrow=classic;html=1;rounded=0;exitX=0.221;exitY=-0.003;exitDx=0;exitDy=0;exitPerimeter=0;" parent="1" source="39150e848f15840c-1" edge="1">
          <mxGeometry width="50" height="50" relative="1" as="geometry">
            <mxPoint x="468" y="425" as="sourcePoint" />
            <mxPoint x="500" y="426" as="targetPoint" />
          </mxGeometry>
        </mxCell>
        <mxCell id="56qgGgSU_Dx7bQ2gSMt9-12" value="" style="endArrow=classic;html=1;rounded=0;entryX=0.223;entryY=0.995;entryDx=0;entryDy=0;entryPerimeter=0;" parent="1" target="39150e848f15840c-2" edge="1">
          <mxGeometry width="50" height="50" relative="1" as="geometry">
            <mxPoint x="660" y="426" as="sourcePoint" />
            <mxPoint x="712.31" y="425.94000000000005" as="targetPoint" />
          </mxGeometry>
        </mxCell>
        <mxCell id="56qgGgSU_Dx7bQ2gSMt9-13" value="&lt;b&gt;RabbitMQ&lt;/b&gt;&lt;br&gt;&lt;i&gt;&lt;font style=&quot;&quot;&gt;&lt;span style=&quot;font-size: 10px;&quot;&gt;&amp;lt;&amp;lt;user_exchange&amp;gt;&amp;gt;&lt;/span&gt;&lt;/font&gt;&lt;/i&gt;" style="text;html=1;align=center;verticalAlign=middle;whiteSpace=wrap;rounded=0;" parent="1" vertex="1">
          <mxGeometry x="565" y="345" width="125" height="30" as="geometry" />
        </mxCell>
        <mxCell id="56qgGgSU_Dx7bQ2gSMt9-18" value="&lt;b&gt;.NET REST API&lt;/b&gt;&lt;div&gt;&lt;font style=&quot;font-size: 10px;&quot;&gt;&lt;i&gt;(Clean Architecture)&lt;/i&gt;&lt;/font&gt;&lt;/div&gt;" style="text;html=1;align=center;verticalAlign=middle;whiteSpace=wrap;rounded=0;" parent="1" vertex="1">
          <mxGeometry x="288" y="461" width="110" height="30" as="geometry" />
        </mxCell>
        <mxCell id="56qgGgSU_Dx7bQ2gSMt9-19" value="&lt;b&gt;.NET REST API&lt;/b&gt;&lt;div&gt;&lt;font style=&quot;font-size: 10px;&quot;&gt;&lt;i&gt;(Clean Architecture)&lt;/i&gt;&lt;/font&gt;&lt;/div&gt;" style="text;html=1;align=center;verticalAlign=middle;whiteSpace=wrap;rounded=0;" parent="1" vertex="1">
          <mxGeometry x="740" y="465" width="110" height="30" as="geometry" />
        </mxCell>
        <mxCell id="56qgGgSU_Dx7bQ2gSMt9-22" value="&lt;b&gt;&lt;i&gt;&lt;font color=&quot;#a5cc49&quot; style=&quot;font-size: 17px;&quot;&gt;Archiecture Diagram&lt;/font&gt;&lt;/i&gt;&lt;/b&gt;" style="text;html=1;align=center;verticalAlign=middle;whiteSpace=wrap;rounded=0;" parent="1" vertex="1">
          <mxGeometry x="490" y="287" width="192" height="30" as="geometry" />
        </mxCell>
        <mxCell id="7Hu_VxDZ0o_kF5YvogSV-1" value="SystemA_DB&lt;br&gt;&lt;font size=&quot;1&quot; style=&quot;&quot;&gt;&lt;i style=&quot;&quot;&gt;&amp;lt;MSSQL DB&amp;gt;&lt;/i&gt;&lt;/font&gt;" style="strokeWidth=2;html=1;shape=mxgraph.flowchart.database;whiteSpace=wrap;" parent="1" vertex="1">
          <mxGeometry x="283" y="600" width="150" height="120" as="geometry" />
        </mxCell>
        <mxCell id="7Hu_VxDZ0o_kF5YvogSV-3" value="SystemB_DB&lt;br&gt;&lt;font style=&quot;font-size: 10px;&quot;&gt;&lt;i&gt;&amp;lt;MSSQL DB&amp;gt;&lt;/i&gt;&lt;/font&gt;" style="strokeWidth=2;html=1;shape=mxgraph.flowchart.database;whiteSpace=wrap;" parent="1" vertex="1">
          <mxGeometry x="720" y="600" width="150" height="120" as="geometry" />
        </mxCell>
        <mxCell id="h1rhnGbTL_kMhpww9CL0-2" value="" style="shape=image;verticalLabelPosition=bottom;labelBackgroundColor=default;verticalAlign=top;aspect=fixed;imageAspect=0;image=https://images.ctfassets.net/o7xu9whrs0u9/6qR4PTwCTfgl0tjfrz0lpy/819fecae70412dacb9b960b98f5fae3b/RabbitMQ-LOGO.png;" vertex="1" parent="1">
          <mxGeometry x="580" y="378" width="95" height="95" as="geometry" />
        </mxCell>
        <mxCell id="h1rhnGbTL_kMhpww9CL0-3" value="" style="shape=image;verticalLabelPosition=bottom;labelBackgroundColor=default;verticalAlign=top;aspect=fixed;imageAspect=0;image=https://cdn-icons-png.flaticon.com/512/2493/2493541.png;" vertex="1" parent="1">
          <mxGeometry x="509" y="411" width="41" height="41" as="geometry" />
        </mxCell>
        <mxCell id="h1rhnGbTL_kMhpww9CL0-4" value="" style="shape=image;verticalLabelPosition=bottom;labelBackgroundColor=default;verticalAlign=top;aspect=fixed;imageAspect=0;image=https://cdn-icons-png.flaticon.com/512/2493/2493541.png;" vertex="1" parent="1">
          <mxGeometry x="509" y="452" width="41" height="41" as="geometry" />
        </mxCell>
        <mxCell id="h1rhnGbTL_kMhpww9CL0-5" value="" style="shape=image;verticalLabelPosition=bottom;labelBackgroundColor=default;verticalAlign=top;aspect=fixed;imageAspect=0;image=https://cdn-icons-png.flaticon.com/512/2493/2493541.png;" vertex="1" parent="1">
          <mxGeometry x="509" y="370" width="41" height="41" as="geometry" />
        </mxCell>
        <mxCell id="h1rhnGbTL_kMhpww9CL0-6" value="" style="endArrow=classic;html=1;rounded=0;exitX=0.221;exitY=-0.003;exitDx=0;exitDy=0;exitPerimeter=0;" edge="1" parent="1">
          <mxGeometry width="50" height="50" relative="1" as="geometry">
            <mxPoint x="556" y="425" as="sourcePoint" />
            <mxPoint x="592" y="425" as="targetPoint" />
          </mxGeometry>
        </mxCell>
        <mxCell id="h1rhnGbTL_kMhpww9CL0-7" value="&lt;i&gt;http://localhost:5672&lt;br&gt;&lt;/i&gt;&lt;i&gt;http://localhost:&lt;/i&gt;&lt;i&gt;15672&lt;br&gt;&lt;/i&gt;" style="text;html=1;align=center;verticalAlign=middle;whiteSpace=wrap;rounded=0;" vertex="1" parent="1">
          <mxGeometry x="597.5" y="465" width="60" height="30" as="geometry" />
        </mxCell>
        <mxCell id="h1rhnGbTL_kMhpww9CL0-9" value="&lt;i style=&quot;forced-color-adjust: none; color: rgb(0, 0, 0); font-family: Helvetica; font-size: 12px; font-variant-ligatures: normal; font-variant-caps: normal; font-weight: 400; letter-spacing: normal; orphans: 2; text-align: center; text-indent: 0px; text-transform: none; widows: 2; word-spacing: 0px; -webkit-text-stroke-width: 0px; white-space: normal; background-color: rgb(251, 251, 251); text-decoration-thickness: initial; text-decoration-style: initial; text-decoration-color: initial;&quot;&gt;http://localhost:1434&lt;/i&gt;" style="text;whiteSpace=wrap;html=1;" vertex="1" parent="1">
          <mxGeometry x="807" y="578" width="140" height="40" as="geometry" />
        </mxCell>
        <mxCell id="h1rhnGbTL_kMhpww9CL0-10" value="" style="rounded=0;whiteSpace=wrap;html=1;" vertex="1" parent="1">
          <mxGeometry x="347" y="593" width="12" height="12" as="geometry" />
        </mxCell>
        <mxCell id="7Hu_VxDZ0o_kF5YvogSV-4" value="" style="endArrow=classic;html=1;rounded=0;exitX=0;exitY=0;exitDx=140;exitDy=110;exitPerimeter=0;" parent="1" source="39150e848f15840c-1" edge="1">
          <mxGeometry width="50" height="50" relative="1" as="geometry">
            <mxPoint x="353" y="540" as="sourcePoint" />
            <mxPoint x="353" y="593" as="targetPoint" />
          </mxGeometry>
        </mxCell>
        <mxCell id="h1rhnGbTL_kMhpww9CL0-11" value="" style="rounded=0;whiteSpace=wrap;html=1;" vertex="1" parent="1">
          <mxGeometry x="795" y="593" width="12" height="12" as="geometry" />
        </mxCell>
        <mxCell id="7Hu_VxDZ0o_kF5YvogSV-5" value="" style="endArrow=classic;html=1;rounded=0;entryX=0.538;entryY=-0.006;entryDx=0;entryDy=0;entryPerimeter=0;exitX=0;exitY=0;exitDx=140;exitDy=110;exitPerimeter=0;" parent="1" source="39150e848f15840c-2" edge="1">
          <mxGeometry width="50" height="50" relative="1" as="geometry">
            <mxPoint x="800" y="540" as="sourcePoint" />
            <mxPoint x="800.7" y="593.1" as="targetPoint" />
          </mxGeometry>
        </mxCell>
      </root>
    </mxGraphModel>
  </diagram>
</mxfile>
